<svg xmlns="http://www.w3.org/2000/svg" width="124" height="124" viewBox="0 0 124 124"><defs><style>.a,.b,.c{fill:none;stroke:#222;stroke-width:2.249px;}.a,.b{stroke-miterlimit:10;}.b{stroke-linecap:round;}.c{stroke-linejoin:round;}.d{fill:#f1494c;}</style></defs><circle class="a" cx="62" cy="39.2895" r="32.7475"/><path class="b" d="M88.0113,39.29A26.0113,26.0113,0,0,0,62,13.2783"/><polyline class="a" points="57.224 72.037 57.224 83.934 66.776 83.934 66.776 72.037"/><rect class="c" x="44.6614" y="35.4542" width="11.5591" height="15.6154"/><rect class="c" x="56.2205" y="27.5095" width="11.5592" height="23.5601"/><rect class="c" x="67.7796" y="35.4542" width="11.5591" height="15.6154"/><line class="b" x1="25.0608" y1="96.0405" x2="19.1202" y2="102.3023"/><line class="b" x1="36.4636" y1="102.3066" x2="30.5284" y2="96.0507"/><line class="b" x1="48.2602" y1="95.6268" x2="41.9307" y2="102.2984"/><circle class="b" cx="16.3864" cy="105.1838" r="3.9736"/><circle class="b" cx="27.8005" cy="93.164" r="3.9736"/><path class="b" d="M43.174,105.1838A3.9736,3.9736,0,1,0,39.2,109.1574,3.9735,3.9735,0,0,0,43.174,105.1838Z"/><path class="b" d="M70.3587,109.8168V86.9824A3.0487,3.0487,0,0,0,67.31,83.9336H56.69a3.0486,3.0486,0,0,0-3.0486,3.0488v22.8344"/><path class="b" d="M53.6414,109.8168v9.4054a3.0486,3.0486,0,0,0,3.0486,3.0487H67.31a3.0486,3.0486,0,0,0,3.0486-3.0487v-9.4054"/><line class="b" x1="98.9393" y1="96.0405" x2="104.8799" y2="102.3023"/><line class="b" x1="87.5365" y1="102.3066" x2="93.4716" y2="96.0507"/><line class="b" x1="75.74" y1="95.6268" x2="82.0695" y2="102.2984"/><circle class="b" cx="107.6136" cy="105.1838" r="3.9736"/><circle class="b" cx="96.1996" cy="93.164" r="3.9736"/><path class="b" d="M80.826,105.1838A3.9737,3.9737,0,1,1,84.8,109.1574,3.9736,3.9736,0,0,1,80.826,105.1838Z"/><rect class="d" x="47.9409" y="38.7827" width="5" height="8.9583"/><rect class="d" x="71.0592" y="38.7827" width="5" height="8.9583"/><rect class="d" x="59.549" y="30.7935" width="5" height="16.9476"/></svg>