<svg xmlns="http://www.w3.org/2000/svg" width="124" height="124" viewBox="0 0 124 124"><defs><style>.a,.b{fill:none;stroke:#222;stroke-linecap:round;stroke-width:2.8381px;}.a{stroke-linejoin:round;}.b{stroke-miterlimit:10;}.c{fill:#f1494c;}</style></defs><path class="a" d="M56.5217,28.2a5.4782,5.4782,0,0,0,10.9563,0c0-3.0257-2.2458-4.4236-5.4781-5.4782-2.8762-.9387-5.4782-2.4525-5.4782-5.4781a5.4782,5.4782,0,0,1,10.9563,0"/><line class="a" x1="61.9999" y1="8.7124" x2="61.9999" y2="11.8031"/><line class="a" x1="61.9999" y1="33.678" x2="61.9999" y2="36.769"/><path class="a" d="M81.1386,29.1569a20.18,20.18,0,1,0-38.3627-.26"/><path class="b" d="M32.17,80.895l9.6908,36.3382A5.6661,5.6661,0,0,0,47.336,121.44H76.6635a5.6661,5.6661,0,0,0,5.4751-4.2065L91.8294,80.895"/><path class="b" d="M62,80.895H95.3267a3.7659,3.7659,0,0,0,3.766-3.7657V72.6105a3.766,3.766,0,0,0-3.766-3.7659H28.673a3.7658,3.7658,0,0,0-3.7657,3.7659v4.5188A3.7656,3.7656,0,0,0,28.673,80.895H62"/><path class="b" d="M62,61.029A22.1406,22.1406,0,0,1,73.8041,46.8626"/><path class="b" d="M64.0133,49.5982c-1.4634-4.1864.6294-9.0031,4.0652-11.8071s7.9365-3.9366,12.3374-4.4835,8.8773-.59,13.2007-1.5775c.9226,4.1093,1.6675,8.3482,1.0693,12.517s-2.74,8.3079-6.4074,10.3777c-2.8112,1.5865-6.1619,1.8089-9.3842,1.9954A67.8679,67.8679,0,0,1,68.22,55.7363"/><path class="b" d="M50.1956,46.8626A22.1411,22.1411,0,0,1,62,61.029v7.8156"/><path class="b" d="M59.914,43.5249a12.7609,12.7609,0,0,0-3.993-5.7338c-3.4359-2.8037-7.9363-3.9366-12.3372-4.4835s-8.8773-.59-13.2006-1.5775c-.9227,4.1093-1.6673,8.3482-1.0694,12.517s2.74,8.3079,6.4075,10.3777c2.8111,1.5865,6.1618,1.8089,9.3842,1.9954A67.8662,67.8662,0,0,0,55.78,55.7363"/><path class="c" d="M42.7229,101.0648l3.968,14.881a.6686.6686,0,0,0,.6451.4954H76.6635a.67.67,0,0,0,.6454-.4954l3.968-14.8807a47.0652,47.0652,0,0,1-38.554,0Z"/></svg>