<svg xmlns="http://www.w3.org/2000/svg" width="124" height="124" viewBox="0 0 124 124"><defs><style>.a{fill:#f1494c;}.b{fill:none;stroke:#222;stroke-linecap:round;stroke-linejoin:round;stroke-width:2.8381px;}</style></defs><path class="a" d="M85.4822,105.7651a24,24,0,1,1,24-24A24.0273,24.0273,0,0,1,85.4822,105.7651Zm0-44.2434a20.243,20.243,0,1,0,20.243,20.243A20.266,20.266,0,0,0,85.4822,61.5217Z"/><polyline class="b" points="76.275 80.08 84.005 87.81 96.096 75.719"/><path class="b" d="M111.8234,121.8563H11.0365a7.9655,7.9655,0,0,1-7.9655-7.9655V31.6322a6.3464,6.3464,0,0,1,6.3463-6.3463H114.8439a6.3461,6.3461,0,0,1,6.346,6.3463V112.49A9.3665,9.3665,0,0,1,111.8234,121.8563Z"/><path class="b" d="M18.9472,38.0441a1.1112,1.1112,0,1,0-1.1112,1.1112A1.1113,1.1113,0,0,0,18.9472,38.0441Z"/><path class="b" d="M31.616,38.0441a1.1112,1.1112,0,1,0-1.1112,1.1112A1.1113,1.1113,0,0,0,31.616,38.0441Z"/><path class="b" d="M44.2849,38.0441a1.1111,1.1111,0,1,0-1.1109,1.1112A1.111,1.111,0,0,0,44.2849,38.0441Z"/><line class="b" x1="3.071" y1="50.5651" x2="121.1899" y2="50.5651"/><polyline class="b" points="14.94 74.682 14.94 63.144 43.848 63.144 43.848 74.682"/><line class="b" x1="14.9397" y1="84.0969" x2="43.8476" y2="84.0969"/><line class="b" x1="14.9397" y1="91.6635" x2="43.8476" y2="91.6635"/><line class="b" x1="14.9397" y1="99.2299" x2="43.8476" y2="99.2299"/></svg>