<svg xmlns="http://www.w3.org/2000/svg" width="124" height="124" viewBox="0 0 124 124"><defs><style>.a,.c{fill:none;stroke:#222;stroke-miterlimit:10;stroke-width:2.8381px;}.b{fill:#454545;}.c{stroke-linecap:round;}.d{fill:#f1494c;}</style></defs><path class="a" d="M81.2366,82.9123a18.8723,18.8723,0,1,0-18.8723,18.8726A18.8722,18.8722,0,0,0,81.2366,82.9123Z"/><path class="b" d="M62.3643,80.9271a9.4871,9.4871,0,0,1,8.7,5.73,9.4753,9.4753,0,1,0-17.4,0A9.4874,9.4874,0,0,1,62.3643,80.9271Z"/><polyline class="c" points="72.255 104.848 84.341 116.935 84.341 104.89 96.386 104.89 84.3 92.803"/><polyline class="c" points="52.337 104.985 40.251 117.071 40.251 105.026 28.206 105.026 40.292 92.94"/><path class="d" d="M62.3643,28.5734l1.9569,3.9653a4.9771,4.9771,0,0,0,3.748,2.7231l4.376.6358-3.1663,3.0868a4.977,4.977,0,0,0-1.4316,4.4061l.7475,4.3584L64.68,45.691a4.9767,4.9767,0,0,0-4.6325,0l-3.9141,2.0579.7475-4.3584A4.9781,4.9781,0,0,0,55.45,38.9844l-3.1666-3.0868,4.3763-.6358a4.9761,4.9761,0,0,0,3.7477-2.7231Z"/><path class="d" d="M25.0724,40.69l3.9141,2.0578a4.9769,4.9769,0,0,0,4.6326,0l3.914-2.0578-.7474,4.3586a4.9783,4.9783,0,0,0,1.4316,4.4059l3.1665,3.0864-4.376.6361A4.9776,4.9776,0,0,0,33.26,55.9l-1.9569,3.9655L29.3458,55.9a4.9776,4.9776,0,0,0-3.7481-2.7229l-4.376-.6361,3.1666-3.0864A4.9769,4.9769,0,0,0,25.82,45.0488Z"/><path class="d" d="M2.0246,72.4125l4.3763-.6358a4.9773,4.9773,0,0,0,3.7477-2.7231l1.9572-3.9653,1.9569,3.9653a4.9783,4.9783,0,0,0,3.748,2.7231l4.376.6358L19.02,75.4993a4.9773,4.9773,0,0,0-1.4316,4.4061l.7475,4.3583-3.9141-2.0578a4.9773,4.9773,0,0,0-4.6328,0L5.8753,84.2637l.7475-4.3583a4.977,4.977,0,0,0-1.4316-4.4061Z"/><path class="d" d="M122.704,72.4125l-3.1666,3.0868a4.977,4.977,0,0,0-1.4316,4.4061l.7475,4.3583-3.9144-2.0578a4.9769,4.9769,0,0,0-4.6326,0l-3.914,2.0578.7475-4.3583a4.9781,4.9781,0,0,0-1.4316-4.4061l-3.1666-3.0868,4.376-.6358a4.9778,4.9778,0,0,0,3.748-2.7231l1.9572-3.9653,1.9569,3.9653a4.9783,4.9783,0,0,0,3.748,2.7231Z"/><path class="d" d="M99.6562,40.69l-.7475,4.3586a4.9769,4.9769,0,0,0,1.4316,4.4059l3.1666,3.0864-4.376.6361A4.9766,4.9766,0,0,0,95.3828,55.9l-1.9571,3.9655L91.4688,55.9a4.9776,4.9776,0,0,0-3.748-2.7229l-4.3761-.6361,3.1664-3.0864a4.9781,4.9781,0,0,0,1.4318-4.4059L87.1952,40.69l3.914,2.0578a4.9775,4.9775,0,0,0,4.6329,0Z"/></svg>