<svg width="941" height="652" viewBox="0 0 941 652" fill="none" xmlns="http://www.w3.org/2000/svg">
<g clip-path="url(#clip0_250_369)">
<rect width="940.7" height="652" fill="#77F835"/>
<path d="M445.9 152.2C446.7 151.7 447.9 151.4 448.2 150.7C455.7 136.8 463.1 122.7 470.7 108.8C475.4 100.2 480.6 91.9 485.2 83.3C486.8 80.3 487.3 76.7 488.4 73.4C488 73.3 487.6 73.2 487.3 73.1C481 84.7 474.6 96.2 468.4 107.9C463.1 117.8 458.1 127.8 453 137.7C450.5 142.6 448.3 147.4 445.9 152.2C443.6 156.3 441.2 160.3 438.8 164.3C439.4 164.6 440 164.9 440.7 165.2C442.4 160.8 444.1 156.5 445.9 152.2ZM137.7 36.8C137 36.7 136.3 36.6 135.6 36.6C101.2 36.6 66.8 36.6 32.5 36.6C31.4 36.6 30.4 36.9 29.4 37C28.9 45.4 28.3 53.4 28.1 61.4C27.6 82.7 27.2 104.1 26.8 125.4C26.4 147.4 26 169.5 25.6 191.5C25.2 213.3 24.8 235 24.6 256.8C24.4 273.2 24.6 289.6 24.4 306C24.4 309.9 23.5 313.8 23.1 317.8C22.8 320.3 21.5 321.2 19.1 321.1C16.1 321 13.1 320.8 10.2 321.3C9 321.5 8 323.2 7 324.2C8 324.8 9.1 325.9 10.1 326C19.2 326.1 28.2 326 37.3 326.1C39.9 326.1 40.8 325.2 40.7 322.6C40.6 315.4 40.5 308.2 40.7 301C40.9 292.4 41.5 283.9 41.9 275.3C42.3 275.6 42.8 275.8 43.2 276.1C44.3 274.9 45.6 273.8 46.4 272.4C58.3 250.1 70 227.7 81.8 205.4C98.8 173.2 115.9 141 132.7 108.7C135 104.2 135.9 98.9 136.7 93.8C137.3 89.8 136.8 85.6 136.9 81.5C137.2 72.4 137.8 63.3 138 54.2C138.2 48.7 138 43.2 137.9 37.7C137.9 37.2 137.7 37 137.7 36.8C167.4 36.7 197.2 36.7 227.1 36.7C227.1 24 227.1 12.2 227.1 0.20003C197.4 0.20003 168 0.20003 138.2 0.20003C138.2 2.40003 138.2 4.30003 138.2 6.30003C138 16.5 137.8 26.7 137.7 36.8ZM260.7 0.30003C260.7 2.40003 260.7 3.90003 260.7 5.40003C260.4 24.3 260 43.3 259.7 62.2C259.2 88.1 258.8 113.9 258.3 139.8C258 156.8 257.7 173.7 257.4 190.7C257 212.7 256.5 234.8 256.2 256.8C256 272.6 256.2 288.5 256 304.3C256 308.5 255.2 312.7 255 317C254.8 320.3 253.1 321.4 250 321.2C247.5 321 244.9 321.2 242.4 321.2C239 321.1 238.2 322.8 239.3 326.1C248.8 326.1 258.2 325.9 267.7 326.2C271.5 326.3 272.5 325 272.5 321.4C272.6 306 273.1 290.6 273.4 274.9C277.2 276.7 277.5 273.6 278.3 272C292.7 244.9 306.9 217.8 321.3 190.7C334.9 165 348.6 139.3 362 113.6C364.8 108.3 367.9 102.6 368.3 96.8C369.5 81.4 369.5 65.8 369.8 50.3C369.9 47.6 368.9 44.8 368.9 42C368.9 38.9 369.7 35.9 369.8 32.8C369.9 24 369.8 15.3 369.8 6.50003C369.8 4.40003 369.8 2.40003 369.8 0.30003C333.1 0.30003 297.2 0.30003 260.7 0.30003ZM504.9 275C505.4 275.2 505.9 275.4 506.4 275.6C507.3 274.7 508.6 274 509.2 272.9C516.1 260 523 247 529.8 234C539.9 214.9 549.9 195.8 560 176.7C571.2 155.5 582.7 134.4 593.6 113.1C596.6 107.3 599.3 100.9 599.9 94.6C601.2 80.6 601 66.5 601.3 52.4C601.4 47 601.3 41.6 601.3 36.3C601.3 25.6 601.3 14.8 601.3 4.10003C601.3 2.90003 601.2 1.70003 601.1 0.50003C564.7 0.50003 528.7 0.50003 492.6 0.50003C492.5 1.90003 492.4 3.00003 492.4 4.20003C492 24 491.5 43.7 491.1 63.5C490.6 89.2 490.3 114.9 489.9 140.7C489.6 157.5 489.3 174.3 488.9 191.1C488.5 213 487.9 234.9 487.6 256.8C487.4 274.2 487.6 291.6 487.4 309C487.2 321 487 321 475.3 321.2C474.9 321.2 474.5 321.2 474 321.2C470.6 321 469.9 322.8 470.8 326.1C480 326.1 489.1 325.9 498.3 326.2C502.5 326.3 503.8 325.3 503.8 320.8C504 305.5 504.5 290.2 504.9 275ZM347.6 326.2C348.1 331.5 348.8 336.3 349 341.2C349.8 360.2 350.5 379.2 351.2 398.3C351.6 410 352.1 421.7 352.5 433.4C353.2 452.7 354 472 354.7 491.4C355.5 512 356.3 532.6 357 553.2C357.6 570.3 357.9 587.3 358.4 604.4C358.4 605.7 358.8 606.9 358.8 608.2C358.9 613.8 358.9 619.5 358.9 625.1C358.9 634.1 358.9 643 358.9 651.9C365.6 651.9 372.2 651.9 379.1 651.9C379.1 650.2 379.1 648.8 379.1 647.5C378.3 625.9 377.2 604.4 376.9 582.8C376.7 564.9 377.6 546.9 378 529C378.4 510.5 378.7 492 379 473.5C379.5 446.7 379.8 419.8 380.3 393C380.6 376.8 381 360.5 381.4 344.3C381.5 338.4 381.4 332.5 381.4 326.4C370.1 326.2 359.2 326.2 347.6 326.2ZM115.9 326.1C116.4 330.3 117 334.1 117.2 337.8C118.1 358.5 118.9 379.2 119.6 399.9C120 410.5 120.3 421.1 120.7 431.6C121.5 451.6 122.3 471.6 123.1 491.7C123.9 511.9 124.7 532 125.3 552.2C125.8 569.3 126.2 586.3 126.7 603.4C126.7 605 127 606.5 127 608C127 613.8 127 619.5 127 625.3C127 634.1 127 643 127 651.8C133.8 651.8 140.4 651.8 147.4 651.8C147.4 650.1 147.4 648.5 147.4 647C146.7 626.3 145.6 605.6 145.3 584.8C145.1 566.7 145.9 548.6 146.2 530.6C146.6 511.3 146.9 491.9 147.3 472.6C147.8 443.4 148.2 414.1 148.7 384.9C148.9 371.3 149.4 357.8 149.6 344.2C149.7 338.2 149.6 332.2 149.6 326C138.3 326.1 127.6 326.1 115.9 326.1ZM610.7 652C610.7 650.2 610.7 648.9 610.7 647.5C609.9 626.2 608.7 604.9 608.5 583.6C608.3 566 609.3 548.3 609.6 530.6C610 511.5 610.4 492.5 610.6 473.4C611 443 611.3 412.6 611.8 382.2C612 369.5 612.6 356.8 613 344.1C613.1 338.2 613 332.3 613 326.2C601.6 326.2 590.7 326.2 579.1 326.2C579.6 330.6 580.3 334.6 580.5 338.6C581.4 359.2 582 379.8 582.8 400.4C583.5 419.9 584.4 439.3 585.1 458.8C585.9 479.7 586.7 500.5 587.5 521.4C587.9 531.3 588.2 541.1 588.5 551C589 567.1 589.3 583.2 589.8 599.3C590 606.8 590.8 614.2 590.8 621.7C590.8 630.3 590.1 638.9 589.8 647.5C589.7 649 589.9 650.4 590 652C597.1 652 603.6 652 610.7 652ZM14.7 79.9C17 75.9 19.3 71.9 21.5 68C23.5 64.5 24.8 61 24.8 56.7C24.5 39.5 24.7 22.2 24.7 5.00003C24.7 3.50003 24.7 2.00003 24.7 0.40003C16.3 0.40003 8.4 0.40003 0.5 0.40003C0.5 12.5 0.5 24.5 0.5 36.9C5.5 36.9 10.2 36.9 14.8 36.9C14.7 51.6 14.7 65.7 14.7 79.9ZM246.4 78C246.8 78.1 247.1 78.1 247.5 78.2C249.7 73.7 251.4 68.8 254.4 65C256.2 62.8 256.2 60.9 256.2 58.7C256.2 40.7 256.2 22.8 256.2 4.80003C256.2 3.30003 256.1 1.80003 256 0.30003C252.9 0.30003 250.3 0.30003 247.1 0.30003C248.5 26.5 244.6 52.2 246.4 78ZM487.9 0.10003C485.7 0.10003 484.1 0.20003 482.4 0.10003C479.8 -0.0999704 479 0.90003 478.9 3.50003C478.6 16.9 478 30.3 477.7 43.7C477.5 55.6 477.7 67.4 477.7 80.3C480.6 75.2 482.9 70.7 485.7 66.5C488.2 62.8 487.9 58.7 487.9 54.7C487.9 38.2 487.9 21.6 487.9 5.10003C487.9 3.50003 487.9 2.00003 487.9 0.10003ZM207.4 164.2C207.7 164.4 207.9 164.6 208.2 164.7C208.6 164.4 209.2 164.3 209.4 163.9C215 153.6 220.5 143.3 226.1 133C230.2 125.4 234.4 118 238.5 110.4C241.8 104.2 244.9 98 248.3 91.8C249.8 89 252.1 86.6 253.3 83.6C254.7 80.2 258.1 77.1 255.7 72.7C239.5 103.4 223.4 133.8 207.4 164.2ZM24.2 72.2C23.6 73.3 23.4 73.7 23.1 74.2C15.9 88 8.5 101.9 1.3 115.7C0.6 117.1 0.4 118.8 0 120.3C2.8 117.2 4.7 113.9 6.5 110.6C9.1 105.7 11.6 100.9 14.2 96C16.3 92 18.4 88 20.8 84.1C23 80.8 25.6 77.6 24.2 72.2ZM436.1 172.7C435.7 172.5 435.2 172.2 434.8 172C432.8 175.9 430.8 179.9 428.8 183.8C429.1 184 429.4 184.1 429.7 184.3C431.8 180.4 434 176.5 436.1 172.7ZM198.3 181.2C198.7 181.5 199.1 181.7 199.5 182C201.1 178.9 202.7 175.8 204.3 172.6C203.9 172.4 203.5 172.2 203.2 172C201.6 175.1 199.9 178.2 198.3 181.2Z" fill="black"/>
<path d="M260.7 0.300049C297.2 0.300049 333.1 0.300049 369.7 0.300049C369.7 2.40005 369.7 4.50005 369.7 6.50005C369.7 15.3 369.8 24 369.7 32.8C369.7 35.9 368.8 38.9001 368.8 42C368.8 44.8 369.7 47.5 369.7 50.3C369.4 65.8 369.5 81.3 368.2 96.8C367.7 102.5 364.6 108.3 361.9 113.6C348.5 139.4 334.8 165 321.2 190.7C306.9 217.8 292.6 244.9 278.2 272C277.4 273.6 277.1 276.7 273.3 274.9C273 290.6 272.5 306 272.4 321.4C272.4 325.1 271.4 326.3 267.6 326.2C258.2 325.9 248.7 326.1 239.2 326.1C238.2 322.7 239 321.1 242.3 321.2C244.8 321.2 247.4 321.1 249.9 321.2C253 321.4 254.7 320.4 254.9 317C255.1 312.8 255.8 308.6 255.9 304.3C256.1 288.5 255.9 272.6 256.1 256.8C256.4 234.8 256.9 212.7 257.3 190.7C257.6 173.7 257.9 156.8 258.2 139.8C258.7 113.9 259.1 88.1001 259.6 62.2001C259.9 43.3 260.3 24.3 260.6 5.40005C260.7 3.80005 260.7 2.30005 260.7 0.300049Z" fill="black"/>
<path d="M504.9 275C504.5 290.2 504 305.5 503.9 320.7C503.9 325.1 502.6 326.2 498.4 326.1C489.2 325.8 480.1 326 470.9 326C469.9 322.7 470.7 320.9 474.1 321.1C474.5 321.1 474.9 321.1 475.4 321.1C487.1 320.9 487.4 321 487.5 308.9C487.8 291.5 487.5 274.1 487.7 256.7C488 234.8 488.6 212.9 489 191C489.3 174.2 489.7 157.4 490 140.6C490.4 114.9 490.8 89.2 491.2 63.4C491.5 43.6 492 23.9 492.5 4.10002C492.5 3.00002 492.6 1.90002 492.7 0.400024C528.8 0.400024 564.8 0.400024 601.2 0.400024C601.3 1.60002 601.4 2.80002 601.4 4.00002C601.4 14.7 601.4 25.5 601.4 36.2C601.4 41.6 601.5 47 601.4 52.3C601.1 66.4 601.2 80.5 600 94.5C599.4 100.8 596.7 107.2 593.7 113C582.8 134.3 571.3 155.4 560.1 176.6C550 195.7 540 214.8 529.9 233.9C523.1 246.9 516.2 259.9 509.3 272.8C508.7 273.9 507.5 274.6 506.5 275.5C505.9 275.4 505.4 275.2 504.9 275Z" fill="black"/>
<path d="M137.6 36.7001C137.7 36.9001 138 37.2001 138 37.4001C138.1 42.9001 138.3 48.4001 138.1 53.9001C137.8 63.0001 137.3 72.1 137 81.2C136.9 85.3 137.4 89.5 136.8 93.5C136 98.6 135.1 103.9 132.8 108.4C116.1 140.8 98.9 172.9 81.9 205.1C70.1 227.5 58.3 249.8 46.5 272.1C45.8 273.5 44.4 274.6 43.3 275.8C42.9 275.5 42.4 275.3 42 275C41.6 283.6 41.1 292.1 40.8 300.7C40.6 307.9 40.6 315.1 40.8 322.3C40.8 324.9 40 325.8 37.4 325.8C28.3 325.7 19.3 325.8 10.2 325.7C9.09998 325.7 8.09998 324.6 7.09998 323.9C8.19998 322.9 9.09998 321.2 10.3 321C13.2 320.6 16.2 320.7 19.2 320.8C21.6 320.9 22.9 320 23.2 317.5C23.6 313.6 24.4 309.7 24.5 305.7C24.7 289.3 24.5 272.9 24.7 256.5C24.9 234.7 25.4 213 25.7 191.2C26.1 169.2 26.4 147.1 26.9 125.1C27.3 103.8 27.7 82.4 28.2 61.1C28.4 53.1 29 45.1 29.5 36.7001C30.4 36.6001 31.5 36.3 32.6 36.3C67 36.3 101.4 36.3 135.7 36.3C136.3 36.6 137 36.7001 137.6 36.7001C137.7 36.8001 137.6 36.7001 137.6 36.7001Z" fill="black"/>
<path d="M347.6 326.2C359.3 326.2 370.1 326.2 381.4 326.2C381.4 332.3 381.5 338.2 381.4 344.1C381.1 360.3 380.6 376.6 380.3 392.8C379.8 419.6 379.4 446.5 379 473.3C378.7 491.8 378.4 510.3 378 528.8C377.6 546.7 376.7 564.7 376.9 582.6C377.1 604.2 378.3 625.7 379.1 647.3C379.1 648.7 379.1 650.1 379.1 651.7C372.2 651.7 365.7 651.7 358.9 651.7C358.9 642.8 358.9 633.8 358.9 624.9C358.9 619.3 358.9 613.6 358.8 608C358.8 606.7 358.5 605.5 358.4 604.2C357.9 587.1 357.5 570.1 357 553C356.3 532.4 355.5 511.8 354.7 491.2C354 471.9 353.2 452.6 352.5 433.2C352.1 421.5 351.6 409.8 351.2 398.1C350.5 379.1 349.8 360.1 349 341C348.7 336.3 348.1 331.5 347.6 326.2Z" fill="black"/>
<path d="M115.9 326.1C127.6 326.1 138.3 326.1 149.5 326.1C149.5 332.2 149.6 338.2 149.5 344.3C149.2 357.9 148.8 371.4 148.6 385C148.1 414.2 147.7 443.5 147.2 472.7C146.9 492 146.5 511.4 146.1 530.7C145.8 548.8 145 566.9 145.2 584.9C145.4 605.6 146.5 626.3 147.3 647.1C147.4 648.6 147.3 650.1 147.3 651.9C140.3 651.9 133.7 651.9 126.9 651.9C126.9 643 126.9 634.2 126.9 625.4C126.9 619.6 126.9 613.9 126.9 608.1C126.9 606.5 126.6 605 126.6 603.5C126.1 586.4 125.8 569.4 125.2 552.3C124.6 532.1 123.8 512 123 491.8C122.2 471.8 121.4 451.8 120.6 431.7C120.2 421.1 119.9 410.5 119.5 400C118.7 379.3 117.9 358.6 117.1 337.9C117 334.1 116.4 330.3 115.9 326.1Z" fill="black"/>
<path d="M610.7 652C603.6 652 597.1 652 590.1 652C590 650.5 589.8 649 589.9 647.5C590.2 638.9 590.9 630.3 590.9 621.7C590.9 614.2 590.1 606.8 589.9 599.3C589.4 583.2 589.1 567.1 588.6 551C588.3 541.1 587.9 531.3 587.6 521.4C586.8 500.5 586 479.6 585.2 458.8C584.4 439.3 583.6 419.9 582.9 400.4C582.1 379.8 581.4 359.2 580.6 338.6C580.4 334.6 579.7 330.6 579.2 326.2C590.8 326.2 601.7 326.2 613.1 326.2C613.1 332.3 613.2 338.2 613.1 344.1C612.8 356.8 612.1 369.5 611.9 382.2C611.4 412.6 611.1 443 610.7 473.4C610.4 492.5 610.1 511.5 609.7 530.6C609.3 548.3 608.4 565.9 608.6 583.6C608.8 604.9 610.1 626.2 610.8 647.5C610.7 648.8 610.7 650.2 610.7 652Z" fill="black"/>
<path d="M137.7 36.8C137.9 26.6 138 16.5 138.1 6.30001C138.1 4.30001 138.1 2.40001 138.1 0.200012C168 0.200012 197.4 0.200012 227 0.200012C227 12.2 227 24 227 36.7C197.1 36.7 167.4 36.7 137.7 36.8C137.6 36.7 137.7 36.8 137.7 36.8Z" fill="black"/>
<path d="M14.7 79.9C14.7 65.7 14.7 51.6 14.7 36.9C10.2 36.9 5.50002 36.9 0.400024 36.9C0.400024 24.4 0.400024 12.5 0.400024 0.400024C8.30002 0.400024 16.2 0.400024 24.6 0.400024C24.6 2.00002 24.6 3.50002 24.6 5.00002C24.6 22.2 24.4 39.5 24.7 56.7C24.8 61 23.4 64.5 21.4 68C19.3 71.9 17 75.8 14.7 79.9Z" fill="black"/>
<path d="M246.4 78C244.6 52.2 248.5 26.4 247.1 0.300049C250.3 0.300049 252.9 0.300049 256 0.300049C256.1 1.80005 256.2 3.30005 256.2 4.80005C256.2 22.8 256.2 40.7001 256.2 58.7001C256.2 60.9001 256.2 62.8 254.4 65C251.3 68.8 249.7 73.8 247.5 78.2C247.2 78.2 246.8 78.1 246.4 78Z" fill="black"/>
<path d="M487.9 0.10003C487.9 2.10003 487.9 3.60003 487.9 5.10003C487.9 21.6 487.9 38.2 487.9 54.7C487.9 58.8 488.3 62.8 485.7 66.5C482.9 70.6 480.6 75.1 477.7 80.3C477.7 67.4 477.5 55.5 477.7 43.7C477.9 30.3 478.6 16.9 478.9 3.50003C479 0.90003 479.8 -0.0999704 482.4 0.10003C484 0.20003 485.7 0.10003 487.9 0.10003Z" fill="black"/>
<path d="M207.4 164.2C223.5 133.8 239.5 103.4 255.7 72.8C258.1 77.2 254.7 80.4 253.3 83.7C252.1 86.6 249.8 89.1 248.3 91.9C245 98 241.8 104.3 238.5 110.5C234.4 118.1 230.2 125.6 226.1 133.1C220.5 143.4 215 153.7 209.4 164C209.2 164.4 208.6 164.5 208.2 164.8C207.9 164.5 207.6 164.4 207.4 164.2Z" fill="black"/>
<path d="M446 152.3C448.3 147.5 450.5 142.6 453 137.8C458.1 127.8 463.1 117.8 468.4 108C474.6 96.3 481 84.8 487.3 73.2C487.7 73.3 488.1 73.4 488.4 73.5C487.4 76.8 486.8 80.4 485.2 83.4C480.6 92 475.4 100.3 470.7 108.9C463.1 122.8 455.7 136.9 448.2 150.8C447.8 151.4 446.7 151.7 446 152.3Z" fill="black"/>
<path d="M24.2 72.2C25.6 77.6 22.9 80.8 20.8 84.2C18.4 88 16.4 92.1 14.2 96.1C11.6 100.9 9.1 105.8 6.5 110.7C4.7 114 2.8 117.4 0 120.4C0.4 118.8 0.6 117.2 1.3 115.8C8.5 101.9 15.9 88 23.2 74.2C23.4 73.7 23.7 73.3 24.2 72.2Z" fill="black"/>
<path d="M445.9 152.2C444.2 156.5 442.4 160.9 440.7 165.2C440.1 164.9 439.5 164.6 438.8 164.3C441.2 160.2 443.6 156.2 445.9 152.2C446 152.3 445.9 152.2 445.9 152.2Z" fill="black"/>
<path d="M436.1 172.7C433.9 176.6 431.8 180.4 429.6 184.3C429.3 184.1 429 184 428.7 183.8C430.7 179.9 432.7 175.9 434.7 172C435.2 172.2 435.7 172.5 436.1 172.7Z" fill="black"/>
<path d="M198.3 181.2C199.9 178.1 201.6 175.1 203.2 172C203.6 172.2 204 172.4 204.3 172.6C202.7 175.7 201.1 178.8 199.5 182C199.1 181.8 198.7 181.5 198.3 181.2Z" fill="black"/>
<path d="M821.9 36.8C821.2 36.7 820.5 36.6 819.8 36.6C785.4 36.6 751 36.6 716.7 36.6C715.6 36.6 714.6 36.9 713.6 37C713.1 45.4 712.5 53.4 712.3 61.4C711.8 82.7 711.4 104.1 711 125.4C710.6 147.4 710.2 169.5 709.8 191.5C709.4 213.3 709 235 708.8 256.8C708.6 273.2 708.8 289.6 708.6 306C708.6 309.9 707.7 313.8 707.3 317.8C707 320.3 705.7 321.2 703.3 321.1C700.3 321 697.3 320.8 694.4 321.3C693.2 321.5 692.2 323.2 691.2 324.2C692.2 324.8 693.3 325.9 694.3 326C703.4 326.1 712.4 326 721.5 326.1C724.1 326.1 725 325.2 724.9 322.6C724.8 315.4 724.7 308.2 724.9 301C725.1 292.4 725.7 283.9 726.1 275.3C726.5 275.6 727 275.8 727.4 276.1C728.5 274.9 729.8 273.8 730.6 272.4C742.5 250.1 754.2 227.7 766 205.4C783 173.2 800.1 141 816.9 108.7C819.2 104.2 820.1 98.9 820.9 93.8C821.5 89.8 821 85.6 821.1 81.5C821.4 72.4 822 63.3 822.2 54.2C822.4 48.7 822.2 43.2 822.1 37.7C822.2 37.2 821.9 37 821.9 36.8C851.6 36.7 881.4 36.7 911.3 36.7C911.3 24 911.3 12.2 911.3 0.200012C881.6 0.200012 852.2 0.200012 822.4 0.200012C822.4 2.40001 822.4 4.30001 822.4 6.30001C822.2 16.5 822 26.7 821.9 36.8Z" fill="black"/>
<path d="M800.2 326.1C800.7 330.3 801.3 334.1 801.5 337.8C802.4 358.5 803.2 379.2 803.9 399.9C804.3 410.5 804.6 421.1 805 431.6C805.8 451.6 806.6 471.6 807.4 491.7C808.2 511.9 809 532 809.6 552.2C810.1 569.3 810.5 586.3 811 603.4C811 605 811.3 606.5 811.3 608C811.3 613.8 811.3 619.5 811.3 625.3C811.3 634.1 811.3 643 811.3 651.8C818.1 651.8 824.7 651.8 831.7 651.8C831.7 650.1 831.7 648.5 831.7 647C831 626.3 829.9 605.6 829.6 584.8C829.4 566.7 830.2 548.6 830.5 530.6C830.9 511.3 831.2 491.9 831.6 472.6C832.1 443.4 832.5 414.1 833 384.9C833.2 371.3 833.7 357.8 833.9 344.2C834 338.2 833.9 332.2 833.9 326C822.5 326.1 811.8 326.1 800.2 326.1Z" fill="black"/>
<path d="M699 79.9C701.3 75.9 703.6 71.9 705.8 68C707.8 64.5 709.1 61 709.1 56.7C708.8 39.5 709 22.2 709 5.00002C709 3.50002 709 2.00002 709 0.400024C700.6 0.400024 692.7 0.400024 684.8 0.400024C684.8 12.5 684.8 24.5 684.8 36.9C689.8 36.9 694.5 36.9 699.1 36.9C699 51.6 699 65.7 699 79.9Z" fill="black"/>
<path d="M930.7 78C931.1 78.1 931.4 78.1 931.8 78.2C934 73.7 935.7 68.8 938.7 65C940.5 62.8 940.5 60.9 940.5 58.7C940.5 40.7 940.5 22.8 940.5 4.79999C940.5 3.29999 940.4 1.79999 940.3 0.299988C937.2 0.299988 934.6 0.299988 931.4 0.299988C932.7 26.5 928.9 52.2 930.7 78Z" fill="black"/>
<path d="M891.6 164.2C891.9 164.4 892.1 164.6 892.4 164.7C892.8 164.4 893.4 164.3 893.6 163.9C899.2 153.6 904.7 143.3 910.3 133C914.4 125.4 918.6 118 922.7 110.4C926 104.2 929.1 98 932.5 91.8C934 89 936.3 86.6 937.5 83.6C938.9 80.2 942.3 77.1 939.9 72.7C923.7 103.4 907.6 133.8 891.6 164.2Z" fill="black"/>
<path d="M708.5 72.2C707.9 73.3 707.7 73.7 707.4 74.2C700.1 88.1 692.8 101.9 685.5 115.8C684.8 117.2 684.6 118.9 684.2 120.4C687 117.3 688.9 114 690.7 110.7C693.3 105.8 695.8 101 698.4 96.1C700.5 92.1 702.6 88.1 705 84.2C707.2 80.8 709.9 77.6 708.5 72.2Z" fill="black"/>
<path d="M882.5 181.2C882.9 181.5 883.3 181.7 883.7 182C885.3 178.9 886.9 175.8 888.5 172.6C888.1 172.4 887.7 172.2 887.4 172C885.8 175.1 884.2 178.2 882.5 181.2Z" fill="black"/>
<path d="M821.8 36.7C821.9 36.9 822.2 37.2 822.2 37.4C822.3 42.9 822.5 48.4 822.3 53.9C822 63 821.5 72.1 821.2 81.2C821.1 85.3 821.6 89.5 821 93.5C820.2 98.6 819.3 103.9 817 108.4C800.3 140.8 783.1 172.9 766.1 205.1C754.3 227.5 742.5 249.8 730.7 272.1C730 273.5 728.6 274.6 727.5 275.8C727.1 275.5 726.6 275.3 726.2 275C725.8 283.6 725.3 292.1 725 300.7C724.8 307.9 724.8 315.1 725 322.3C725 324.9 724.2 325.8 721.6 325.8C712.5 325.7 703.5 325.8 694.4 325.7C693.3 325.7 692.3 324.6 691.3 323.9C692.4 322.9 693.3 321.2 694.5 321C697.4 320.6 700.4 320.7 703.4 320.8C705.8 320.9 707.1 320 707.4 317.5C707.8 313.6 708.6 309.7 708.7 305.7C708.9 289.3 708.7 272.9 708.9 256.5C709.1 234.7 709.6 213 709.9 191.2C710.3 169.2 710.6 147.1 711.1 125.1C711.5 103.8 711.9 82.4 712.4 61.1C712.6 53.1 713.2 45.1 713.7 36.7C714.6 36.6 715.7 36.3 716.8 36.3C751.2 36.3 785.6 36.3 819.9 36.3C820.5 36.6 821.2 36.7 821.8 36.7C821.9 36.8 821.8 36.7 821.8 36.7Z" fill="black"/>
<path d="M800.2 326.1C811.9 326.1 822.6 326.1 833.8 326.1C833.8 332.2 833.9 338.2 833.8 344.3C833.5 357.9 833.1 371.4 832.9 385C832.4 414.2 832 443.5 831.5 472.7C831.2 492 830.8 511.4 830.4 530.7C830.1 548.8 829.3 566.9 829.5 584.9C829.7 605.6 830.8 626.3 831.6 647.1C831.7 648.6 831.6 650.1 831.6 651.9C824.6 651.9 818 651.9 811.2 651.9C811.2 643 811.2 634.2 811.2 625.4C811.2 619.6 811.2 613.9 811.2 608.1C811.2 606.5 810.9 605 810.9 603.5C810.4 586.4 810.1 569.4 809.5 552.3C808.9 532.1 808.1 512 807.3 491.8C806.5 471.8 805.7 451.8 804.9 431.7C804.5 421.1 804.2 410.5 803.8 400C803 379.3 802.2 358.6 801.4 337.9C801.3 334.1 800.6 330.3 800.2 326.1Z" fill="black"/>
<path d="M821.9 36.8C822.1 26.6 822.2 16.5 822.3 6.30001C822.3 4.30001 822.3 2.40001 822.3 0.200012C852.2 0.200012 881.6 0.200012 911.2 0.200012C911.2 12.2 911.2 24 911.2 36.7C881.4 36.7 851.6 36.7 821.9 36.8C821.8 36.7 821.9 36.8 821.9 36.8Z" fill="black"/>
<path d="M699 79.9C699 65.7 699 51.6 699 36.9C694.5 36.9 689.8 36.9 684.7 36.9C684.7 24.4 684.7 12.5 684.7 0.400024C692.6 0.400024 700.5 0.400024 708.9 0.400024C708.9 2.00002 708.9 3.50002 708.9 5.00002C708.9 22.2 708.7 39.5 709 56.7C709.1 61 707.7 64.5 705.7 68C703.5 71.9 701.3 75.8 699 79.9Z" fill="black"/>
<path d="M930.7 78C928.9 52.2 932.8 26.4 931.4 0.299988C934.6 0.299988 937.2 0.299988 940.3 0.299988C940.4 1.79999 940.5 3.29999 940.5 4.79999C940.5 22.8 940.5 40.7 940.5 58.7C940.5 60.9 940.5 62.8 938.7 65C935.6 68.8 934 73.8 931.8 78.2C931.4 78.2 931 78.1 930.7 78Z" fill="black"/>
<path d="M891.6 164.2C907.7 133.8 923.7 103.4 939.9 72.8C942.3 77.2 938.9 80.4 937.5 83.7C936.3 86.6 934 89.1 932.5 91.9C929.2 98 926 104.3 922.7 110.5C918.6 118.1 914.4 125.6 910.3 133.1C904.7 143.4 899.2 153.7 893.6 164C893.4 164.4 892.8 164.5 892.4 164.8C892.1 164.5 891.8 164.4 891.6 164.2Z" fill="black"/>
<path d="M708.5 72.2C709.9 77.6 707.2 80.8 705.1 84.2C702.7 88 700.7 92.1 698.5 96.1C695.9 100.9 693.4 105.8 690.8 110.7C689 114 687.1 117.4 684.3 120.4C684.7 118.8 684.9 117.2 685.6 115.8C692.8 101.9 700.2 88.1 707.5 74.2C707.6 73.7 707.9 73.3 708.5 72.2Z" fill="black"/>
<path d="M882.5 181.2C884.1 178.1 885.8 175.1 887.4 172C887.8 172.2 888.2 172.4 888.5 172.6C886.9 175.7 885.3 178.8 883.7 182C883.3 181.8 882.9 181.5 882.5 181.2Z" fill="black"/>
</g>
<defs>
<clipPath id="clip0_250_369">
<rect width="940.7" height="652" fill="white"/>
</clipPath>
</defs>
</svg>
