<svg xmlns="http://www.w3.org/2000/svg" width="124" height="124" viewBox="0 0 124 124"><defs><style>.a,.b,.c{fill:none;stroke:#222;stroke-width:2.8381px;}.a,.c{stroke-linecap:round;}.a{stroke-linejoin:round;}.b,.c{stroke-miterlimit:10;}.d{fill:#f1494c;}</style></defs><path class="a" d="M65.565,121.538h49.9483a6.1606,6.1606,0,0,0,6.1606-6.16V57.1825a4.5267,4.5267,0,0,0-4.5268-4.5266H41.9484a4.5267,4.5267,0,0,0-4.5266,4.5266v58.1951a6.16,6.16,0,0,0,6.16,6.16Z"/><path class="a" d="M48.7457,61.7563a.7926.7926,0,1,0-.7924.7927A.7926.7926,0,0,0,48.7457,61.7563Z"/><path class="a" d="M57.7824,61.7563a.7927.7927,0,1,0-.7927.7927A.7926.7926,0,0,0,57.7824,61.7563Z"/><path class="a" d="M66.8189,61.7563a.7926.7926,0,1,0-.7927.7927A.7926.7926,0,0,0,66.8189,61.7563Z"/><line class="a" x1="37.4218" y1="70.6871" x2="121.6739" y2="70.6871"/><polyline class="a" points="92.401 102.564 99.941 95.024 92.401 87.484"/><polyline class="a" points="66.695 102.564 59.155 95.024 66.695 87.484"/><line class="a" x1="85.0978" y1="83.6347" x2="73.9976" y2="106.1875"/><path class="b" d="M37.8625,72.8309a20.1747,20.1747,0,1,1,20.175-20.175"/><path class="c" d="M67.3471,52.7034c0-.0492,0-.0984,0-.1473a16.6522,16.6522,0,0,1,4.5818-11.6434l1.47-1.5276L67.1237,28.516l-2.0578.51a16.6518,16.6518,0,0,1-12.3742-1.8537l-.1278-.0737a16.732,16.732,0,0,1-7.8387-9.8174l-.5872-2.0356H31.5873l-.5884,2.0394a16.7046,16.7046,0,0,1-7.8211,9.8067l-.0564.0325-.0559.0325a16.7061,16.7061,0,0,1-12.4036,1.87l-2.0606-.51L2.3261,39.3851l1.4691,1.5264A16.73,16.73,0,0,1,8.3779,52.6087v.1477A16.65,16.65,0,0,1,3.7964,64.4l-1.47,1.5276L8.6013,76.7965l2.058-.51A16.6517,16.6517,0,0,1,23.0336,78.14l.1278.074A16.7314,16.7314,0,0,1,31,88.0317l.5872,2.0356h5.8345"/><path class="d" d="M23.1026,52.6562a14.73,14.73,0,0,0,5.5536,11.5174A18.7055,18.7055,0,0,1,47.1606,42.1659c.3822,0,.7555.0348,1.1323.0573a14.7527,14.7527,0,0,0-25.19,10.433Z"/></svg>