<svg xmlns="http://www.w3.org/2000/svg" width="124" height="124" viewBox="0 0 124 124"><defs><style>.a,.b{fill:none;stroke:#222;stroke-linecap:round;stroke-width:2.8381px;}.a{stroke-linejoin:round;}.b{stroke-miterlimit:10;}.c{fill:#f1494c;}</style></defs><polyline class="a" points="73.52 72.174 109.935 72.174 109.935 7.218 16.413 7.218 16.413 72.174 52 72.174"/><path class="a" d="M55.3105,67.3532a7.69,7.69,0,0,1,15.3794,0"/><path class="b" d="M81.7094,92.5443a20.0221,20.0221,0,0,1-2.09,7.9634c-2.642,4.8183-5.2352,8.4538-5.2352,14.4982"/><path class="b" d="M71.3117,85.5515c.2114-6.2983.5441-7.9384-.787-8.839-1.5085-1.0208-3.0318.2367-4.2136,1.4068"/><path class="b" d="M76.5105,88.59c.2117-6.2984.5443-7.9385-.7868-8.8391-1.5085-1.0209-3.0318.2367-4.2136,1.4068"/><path class="b" d="M81.7094,92.5443c.2118-6.2983.5445-7.9384-.7866-8.8391-1.5085-1.0207-3.0321.2368-4.2138,1.4068"/><path class="b" d="M52.8022,121.486v-4.5688a1.9111,1.9111,0,0,1,1.911-1.9113h21.206a1.9111,1.9111,0,0,1,1.9113,1.9113v4.5688"/><path class="b" d="M56.5144,115.0059V108.72c0-9.74-2.7579-12.5645-6.2006-16.7376a11.97,11.97,0,0,1-2.1371-7.0681,2.8475,2.8475,0,0,1,5.6148-.4413,7.3078,7.3078,0,0,1,.1448.9718,4.6972,4.6972,0,0,0,2.534,3.8516h0a2.8467,2.8467,0,0,0,4.1232-2.5446V67.9885a2.651,2.651,0,0,1,2.6509-2.6509h0a2.6509,2.6509,0,0,1,2.6509,2.6509V83.6629"/><path class="a" d="M52.0719,62.0026H34.0031a4.3805,4.3805,0,0,1-4.3807-4.38V39.772a4.3807,4.3807,0,0,1,4.3807-4.3807h57.994a4.3806,4.3806,0,0,1,4.38,4.3807v17.85a4.38,4.38,0,0,1-4.38,4.38H73.4686"/><path class="c" d="M83.6592,58.3642h8.3379a.7433.7433,0,0,0,.7423-.7423V39.772a.7433.7433,0,0,0-.7423-.7423H83.6592a43.7118,43.7118,0,0,1,0,19.3345Z"/><line class="a" x1="74.6427" y1="43.117" x2="74.6427" y2="53.9731"/><line class="a" x1="74.6427" y1="48.5449" x2="79.1661" y2="48.5449"/><line class="a" x1="74.6427" y1="43.117" x2="79.1661" y2="43.117"/><line class="a" x1="74.6427" y1="53.9731" x2="79.1661" y2="53.9731"/><polyline class="a" points="65.755 43.117 65.755 53.973 70.558 53.973"/><path class="a" d="M43.5169,51.2591a2.7141,2.7141,0,0,0,5.4282,0c0-2.3569-2.714-2.7139-2.714-2.7139s-2.7142-.5359-2.7142-2.7142a2.7141,2.7141,0,0,1,5.4282,0"/><line class="a" x1="52.7926" y1="53.9731" x2="57.1947" y2="43.117"/><line class="a" x1="61.597" y1="53.9731" x2="57.1947" y2="43.117"/><line class="a" x1="59.7476" y1="49.4122" x2="54.642" y2="49.4122"/></svg>