<svg xmlns="http://www.w3.org/2000/svg" width="124" height="124" viewBox="0 0 124 124"><defs><style>.a{fill:none;stroke:#222;stroke-linecap:round;stroke-miterlimit:10;stroke-width:2.8381px;}.b{fill:#f1494c;}.c{fill:#454545;}</style></defs><polyline class="a" points="104.468 31.845 104.468 27.865 104.468 8.981 80.205 8.981 87.428 16.205 66.616 37.017 46.868 17.269 37.624 26.513"/><polyline class="a" points="91.832 32.488 97.771 26.549 100.487 29.264"/><polyline class="a" points="37.624 26.513 7.412 56.725 17.756 67.069 46.868 37.957 66.616 57.704 83.365 40.955"/><polyline class="a" points="89.63 121.534 89.63 38.025 114.573 38.025 114.573 121.534"/><polyline class="a" points="64.687 121.218 64.687 65.679 89.63 65.679"/><polyline class="a" points="64.687 87.448 39.745 87.448 39.745 121.215"/><polyline class="a" points="39.745 104.331 14.802 104.331 14.802 121.215"/><rect class="b" x="97.9706" y="46.7858" width="8.2612" height="65.9874"/><rect class="b" x="48.0855" y="96.7981" width="8.2612" height="15.9751"/><rect class="c" x="73.0282" y="74.7049" width="8.2612" height="38.0683"/></svg>