<svg xmlns="http://www.w3.org/2000/svg" width="124" height="124" viewBox="0 0 124 124"><defs><style>.a{fill:none;stroke:#222;stroke-miterlimit:10;stroke-width:2.8381px;}.b{fill:#f1494c;}</style></defs><rect class="a" x="2.5225" y="63.1316" width="31.4956" height="17.4976" rx="2.0713" transform="translate(36.5406 143.7608) rotate(180)"/><rect class="a" x="46.2522" y="63.1316" width="31.4956" height="17.4976" rx="2.0713"/><rect class="a" x="46.2522" y="104.3891" width="31.4956" height="17.4976" rx="2.0713"/><rect class="a" x="46.2522" y="21.8741" width="31.4956" height="17.4976" rx="2.0713"/><rect class="a" x="89.982" y="63.1316" width="31.4956" height="17.4976" rx="2.0713"/><path class="a" d="M18.27,63.1316v-8.02a3.86,3.86,0,0,1,3.86-3.8595H62v-11.88"/><path class="a" d="M105.73,63.1316v-8.02a3.86,3.86,0,0,0-3.86-3.8595H62"/><line class="a" x1="62.0001" y1="63.1316" x2="62.0001" y2="51.2516"/><line class="a" x1="62.0001" y1="80.6292" x2="62.0001" y2="104.3891"/><path class="b" d="M94.6423,73.5875v2.3814h22.1752V67.7916S109.944,73.5875,94.6423,73.5875Z"/><path class="b" d="M7.1829,73.5875v2.3814H29.358V67.7916S22.4846,73.5875,7.1829,73.5875Z"/></svg>