<svg xmlns="http://www.w3.org/2000/svg" width="109.3667" height="118.7146" viewBox="0 0 109.3667 118.7146"><defs><style>.a{fill:#f1494c;}.b,.c{fill:none;stroke:#222;stroke-linecap:round;stroke-width:2.8381px;}.b{stroke-linejoin:round;}.c{stroke-miterlimit:10;}</style></defs><polygon class="a" points="47.248 27.578 30.267 16.927 30.267 38.229 47.248 27.578"/><path class="b" d="M99.227,80.06h.9331a6.8518,6.8518,0,0,1,6.8517,6.8517v23.365a6.8519,6.8519,0,0,1-6.852,6.852H89.9331a6.8519,6.8519,0,0,1-6.8519-6.852V86.9118a6.8519,6.8519,0,0,1,6.8519-6.852h.8984"/><path class="b" d="M99.4724,94.1683a4.4259,4.4259,0,1,1-4.4258-4.4261A4.426,4.426,0,0,1,99.4724,94.1683Z"/><line class="b" x1="95.0466" y1="89.7422" x2="95.0466" y2="80.0598"/><path class="b" d="M95.0466,80.06V69.6488c0-5.0446-5.3426-7.9361-9.7233-7.0489-6.1267,1.2407-10.3177,7.1579-13.4456,12.5689-3.1181,5.3941-5.2511,11.3068-8.2919,16.7453s-6.8869,10.4566-13.1,10.9292c-5.3794.409-14.45-3.4008-14.45-14.3648V54.49"/><path class="c" d="M69.7165,48.6472V3.2589H8.1981A5.8433,5.8433,0,0,0,2.3549,9.1022V54.49H63.873A5.8433,5.8433,0,0,0,69.7165,48.6472Z"/><line class="c" x1="14.4155" y1="3.2589" x2="14.4155" y2="54.4904"/><line class="c" x1="57.6558" y1="3.2589" x2="57.6558" y2="54.4904"/><line class="c" x1="2.3549" y1="14.0582" x2="14.4155" y2="14.0582"/><line class="c" x1="2.3549" y1="23.9359" x2="14.4155" y2="23.9359"/><line class="c" x1="2.3549" y1="33.8135" x2="14.4155" y2="33.8135"/><line class="c" x1="2.3549" y1="43.6909" x2="14.4155" y2="43.6909"/><line class="c" x1="57.6558" y1="14.0582" x2="69.7165" y2="14.0582"/><line class="c" x1="57.6558" y1="23.9359" x2="69.7165" y2="23.9359"/><line class="c" x1="57.6558" y1="33.8135" x2="69.7165" y2="33.8135"/><line class="c" x1="57.6558" y1="43.6909" x2="69.7165" y2="43.6909"/></svg>